# xmcd
#
# Track frame offsets:
# 150
# 17530
# 34872
# 48802
# 65162
# 78582
# 95260
# 104835
# 119900
# 136040
# 155107
# 169392
# 183410
# 199140
#
# Disc length: 2814 seconds
#
#
# Revision: 0
# Processed by: cddbd v1.5.1PL0 Copyright (c) Steve Scherf et al.
# Submitted via: FreeRIP 2.93 
#
DISCID=c90afc0e
DTITLE=Moore Joe - A friend in country music
DYEAR=1999
DGENRE=Country
TTITLE0=Chattahoochee
TTITLE1=Mamma knows the highway
TTITLE2=Look heart no hands
TTITLE3=Forever and ever
TTITLE4=Roads and other reasons
TTITLE5=Here in the real world
TTITLE6=Heroes and friends
TTITLE7=The Box
TTITLE8=Deeper than the hollor
TTITLE9=Hard rock bottom
TTITLE10=All about the change
TTITLE11=Chasing that neon rainbow
TTITLE12=Home to Donegal
TTITLE13=Got no reason
EXTD=
EXTT0=
EXTT1=
EXTT2=
EXTT3=
EXTT4=
EXTT5=
EXTT6=
EXTT7=
EXTT8=
EXTT9=
EXTT10=
EXTT11=
EXTT12=
EXTT13=
PLAYORDER=
